<svg width="19" height="19" viewBox="0 0 19 19" fill="none" xmlns="http://www.w3.org/2000/svg">
<path d="M9.66699 18.7168C12.0539 18.7168 14.3431 17.7686 16.031 16.0808C17.7188 14.3929 18.667 12.1037 18.667 9.7168C18.667 7.32985 17.7188 5.04066 16.031 3.35284C14.3431 1.66501 12.0539 0.716797 9.66699 0.716797C7.28004 0.716797 4.99086 1.66501 3.30303 3.35284C1.6152 5.04066 0.666992 7.32985 0.666992 9.7168C0.666992 12.1037 1.6152 14.3929 3.30303 16.0808C4.99086 17.7686 7.28004 18.7168 9.66699 18.7168ZM13.6396 8.06445L9.13965 12.5645C8.80918 12.8949 8.27481 12.8949 7.94785 12.5645L5.69785 10.3145C5.36738 9.98398 5.36738 9.44961 5.69785 9.12266C6.02832 8.7957 6.5627 8.79219 6.88965 9.12266L8.54199 10.775L12.4443 6.86914C12.7748 6.53867 13.3092 6.53867 13.6361 6.86914C13.9631 7.19961 13.9666 7.73398 13.6361 8.06094L13.6396 8.06445Z" fill="#4B5563"/>
</svg>
