<svg width="10" height="15" viewBox="0 0 10 15" fill="none" xmlns="http://www.w3.org/2000/svg">
<path d="M4.36399 1.68018C4.71555 1.33838 5.28649 1.33838 5.63805 1.68018L9.23805 5.18018C9.4968 5.43174 9.57274 5.80635 9.43211 6.13447C9.29149 6.4626 8.96524 6.67588 8.59961 6.67588H1.39961C1.0368 6.67588 0.707738 6.4626 0.567113 6.13447C0.426488 5.80635 0.505238 5.43174 0.761175 5.18018L4.36117 1.68018H4.36399ZM4.36399 13.4188L0.763988 9.91885C0.505238 9.66729 0.4293 9.29268 0.569925 8.96455C0.71055 8.63643 1.0368 8.42314 1.40242 8.42314H8.59961C8.96242 8.42314 9.29149 8.63643 9.43211 8.96455C9.57274 9.29268 9.49399 9.66729 9.23805 9.91885L5.63805 13.4188C5.28649 13.7606 4.71555 13.7606 4.36399 13.4188Z" fill="black"/>
</svg>
