<svg width="17" height="17" viewBox="0 0 17 17" fill="none" xmlns="http://www.w3.org/2000/svg">
<path d="M12.3385 0.786719L10.5978 2.53047L14.5103 6.44297L16.251 4.70234C16.9353 4.01797 16.9353 2.91172 16.251 2.22734L14.8135 0.786719C14.1291 0.102344 13.0228 0.102344 12.3385 0.786719ZM9.82596 3.17109L9.53846 3.25859L5.03533 4.60859C4.41346 4.79609 3.91971 5.27109 3.71346 5.88984L0.944708 14.1461C0.825958 14.4992 0.913458 14.893 1.17283 15.1586L5.97283 10.3617C5.87908 10.1648 5.82596 9.94609 5.82596 9.71484C5.82596 8.88672 6.49783 8.21484 7.32596 8.21484C8.15408 8.21484 8.82596 8.88672 8.82596 9.71484C8.82596 10.543 8.15408 11.2148 7.32596 11.2148C7.09471 11.2148 6.87596 11.1617 6.67908 11.068L1.87908 15.868C2.14783 16.1273 2.53846 16.218 2.89158 16.0961L11.151 13.3273C11.7666 13.1211 12.2447 12.6273 12.4322 12.0055L13.7822 7.50234L13.8697 7.21484L9.82596 3.17109Z" fill="white"/>
</svg>
