<svg width="7" height="10" viewBox="0 0 7 10" fill="none" xmlns="http://www.w3.org/2000/svg">
<path d="M3.69824 9.45134C3.1098 9.45134 2.59492 9.3311 2.15359 9.09063C1.71226 8.85299 1.36853 8.51917 1.1224 8.08915C0.879105 7.65631 0.757456 7.15274 0.757456 6.57845C0.757456 6.29554 0.788576 6.01688 0.850815 5.74247C0.913054 5.46805 0.989438 5.20919 1.07997 4.96589C1.1705 4.7226 1.25678 4.50759 1.33882 4.32087C1.49159 3.97856 1.67265 3.62917 1.882 3.27271C2.09418 2.91343 2.31767 2.55555 2.55248 2.19909C2.78729 1.84264 3.01361 1.49466 3.23145 1.15518C3.29652 1.05899 3.36866 0.985436 3.44787 0.934514C3.52991 0.883591 3.61337 0.85813 3.69824 0.85813C3.78594 0.85813 3.8694 0.883591 3.94861 0.934514C4.02783 0.985436 4.09997 1.05899 4.16503 1.15518C4.3857 1.49466 4.61202 1.84264 4.844 2.19909C5.07881 2.55555 5.30231 2.91343 5.51449 3.27271C5.72666 3.62917 5.90772 3.97856 6.05766 4.32087C6.1397 4.50759 6.22599 4.7226 6.31652 4.96589C6.40705 5.20919 6.48343 5.46805 6.54567 5.74247C6.60791 6.01688 6.63903 6.29554 6.63903 6.57845C6.63903 7.15274 6.51596 7.65631 6.26984 8.08915C6.02654 8.51917 5.68423 8.85299 5.2429 9.09063C4.80157 9.3311 4.28668 9.45134 3.69824 9.45134Z" fill="#374151"/>
</svg>
