<svg width="21" height="17" viewBox="0 0 21 17" fill="none" xmlns="http://www.w3.org/2000/svg">
<path d="M6.66602 4.54492C6.66602 3.9918 7.11289 3.54492 7.66602 3.54492C8.21914 3.54492 8.66602 3.9918 8.66602 4.54492V4.78867C8.66602 5.6543 8.59102 6.5168 8.44414 7.3668L5.80664 8.15742C4.53789 8.53867 3.66914 9.70742 3.66914 11.0324V13.2793C3.66914 14.5293 4.68477 15.5449 5.93477 15.5449C6.74727 15.5449 7.49727 15.1105 7.90039 14.4043L8.33477 13.6449C9.17227 12.1762 9.78789 10.5918 10.1598 8.9418L13.1098 8.05742L12.7191 9.2293C12.616 9.53555 12.6691 9.86992 12.8566 10.1293C13.0441 10.3887 13.3473 10.5449 13.6691 10.5449H17.666C18.2191 10.5449 18.666 10.098 18.666 9.54492C18.666 8.9918 18.2191 8.54492 17.666 8.54492H15.0535L15.616 6.86055C15.7348 6.50742 15.6441 6.1168 15.3848 5.84805C15.1254 5.5793 14.7379 5.4793 14.3785 5.58555L10.5535 6.73555C10.6285 6.08867 10.666 5.4418 10.666 4.78867V4.54492C10.666 2.88867 9.32227 1.54492 7.66602 1.54492C6.00977 1.54492 4.66602 2.88867 4.66602 4.54492V5.54492C4.66602 6.09805 5.11289 6.54492 5.66602 6.54492C6.21914 6.54492 6.66602 6.09805 6.66602 5.54492V4.54492ZM6.37852 10.0762L7.90977 9.6168C7.58477 10.673 7.14414 11.6918 6.59414 12.6543L6.15977 13.4137C6.11289 13.4949 6.02539 13.548 5.92852 13.548C5.78164 13.548 5.66289 13.4293 5.66289 13.2824V11.0324C5.66289 10.5918 5.95352 10.2012 6.37539 10.073L6.37852 10.0762ZM1.41602 12.0449C1.00039 12.0449 0.666016 12.3793 0.666016 12.7949C0.666016 13.2105 1.00039 13.5449 1.41602 13.5449H2.67539C2.66914 13.4574 2.66602 13.3699 2.66602 13.2793V12.0449H1.41602ZM19.916 13.5449C20.3316 13.5449 20.666 13.2105 20.666 12.7949C20.666 12.3793 20.3316 12.0449 19.916 12.0449H10.2254C10.016 12.5543 9.78164 13.0543 9.52852 13.5449H19.916Z" fill="#4B5563"/>
</svg>
