<svg width="13" height="13" viewBox="0 0 13 13" fill="none" xmlns="http://www.w3.org/2000/svg">
<path d="M6.84983 1.60645C7.18357 1.60645 7.49146 1.78272 7.66068 2.0718L12.7373 10.7208C12.9088 11.0123 12.9088 11.3719 12.742 11.6633C12.5751 11.9547 12.2625 12.1357 11.9264 12.1357H1.77323C1.43714 12.1357 1.12455 11.9547 0.957682 11.6633C0.790812 11.3719 0.793162 11.0099 0.962382 10.7208L6.03898 2.0718C6.2082 1.78272 6.51609 1.60645 6.84983 1.60645ZM6.84983 4.6148C6.53724 4.6148 6.28576 4.86628 6.28576 5.17887V7.81118C6.28576 8.12377 6.53724 8.37525 6.84983 8.37525C7.16242 8.37525 7.4139 8.12377 7.4139 7.81118V5.17887C7.4139 4.86628 7.16242 4.6148 6.84983 4.6148ZM7.60192 9.87943C7.60192 9.67996 7.52268 9.48866 7.38164 9.34762C7.24059 9.20657 7.0493 9.12734 6.84983 9.12734C6.65036 9.12734 6.45907 9.20657 6.31802 9.34762C6.17698 9.48866 6.09774 9.67996 6.09774 9.87943C6.09774 10.0789 6.17698 10.2702 6.31802 10.4112C6.45907 10.5523 6.65036 10.6315 6.84983 10.6315C7.0493 10.6315 7.24059 10.5523 7.38164 10.4112C7.52268 10.2702 7.60192 10.0789 7.60192 9.87943Z" fill="white"/>
</svg>
