<svg width="17" height="17" viewBox="0 0 17 17" fill="none" xmlns="http://www.w3.org/2000/svg">
<path d="M1.74609 8.88184C1.74609 5.29121 4.65547 2.38184 8.24609 2.38184C10.218 2.38184 11.9836 3.25996 13.1773 4.64746C13.4461 4.96309 13.9211 4.99746 14.2336 4.72871C14.5461 4.45996 14.5836 3.98496 14.3148 3.67246C12.8492 1.96309 10.6742 0.881836 8.24609 0.881836C3.82734 0.881836 0.246094 4.46309 0.246094 8.88184V10.1318C0.246094 10.5475 0.580469 10.8818 0.996094 10.8818C1.41172 10.8818 1.74609 10.5475 1.74609 10.1318V8.88184ZM16.0742 7.22871C15.9898 6.82246 15.5898 6.56309 15.1867 6.65059C14.7836 6.73809 14.5211 7.13496 14.6086 7.53809C14.6992 7.97246 14.7492 8.42246 14.7492 8.88496V10.135C14.7492 10.5506 15.0836 10.885 15.4992 10.885C15.9148 10.885 16.2492 10.5506 16.2492 10.135V8.88184C16.2492 8.31621 16.1898 7.76309 16.0773 7.22871H16.0742ZM8.24609 3.38184C7.65234 3.38184 7.07734 3.47559 6.54297 3.65059C6.06797 3.80684 5.95859 4.39121 6.28359 4.77246C6.50547 5.03184 6.87109 5.10996 7.20234 5.01934C7.53359 4.92871 7.88359 4.88184 8.24609 4.88184C10.4555 4.88184 12.2461 6.67246 12.2461 8.88184V9.65996C12.2461 10.4475 12.1992 11.2318 12.1086 12.0131C12.0555 12.4693 12.4023 12.8818 12.8648 12.8818C13.2336 12.8818 13.5492 12.6131 13.593 12.2475C13.6961 11.3912 13.7492 10.5287 13.7492 9.66309V8.88184C13.7492 5.84434 11.2867 3.38184 8.24922 3.38184H8.24609ZM4.95547 5.52871C4.67109 5.19746 4.16484 5.17246 3.89609 5.51621C3.17422 6.44434 2.74609 7.61309 2.74609 8.88184V9.65996C2.74609 10.4162 2.66484 11.1725 2.50234 11.9068C2.39609 12.3943 2.74922 12.8818 3.24922 12.8818C3.57734 12.8818 3.87109 12.6631 3.94297 12.3412C4.14297 11.4631 4.24609 10.5662 4.24609 9.65996V8.88184C4.24609 8.03184 4.51172 7.24434 4.96172 6.59746C5.18672 6.27246 5.21172 5.82871 4.95547 5.52871ZM8.24609 5.88184C6.58984 5.88184 5.24609 7.22559 5.24609 8.88184V9.65996C5.24609 10.7818 5.10234 11.8943 4.81484 12.9756C4.69609 13.4225 5.02422 13.8818 5.48672 13.8818C5.78359 13.8818 6.04609 13.6881 6.12422 13.4006C6.45234 12.1818 6.62109 10.9256 6.62109 9.65996V8.88184C6.62109 7.98496 7.34922 7.25684 8.24609 7.25684C9.14297 7.25684 9.87109 7.98496 9.87109 8.88184V9.65996C9.87109 10.7943 9.76172 11.9225 9.54609 13.0318C9.46172 13.4662 9.78672 13.8818 10.2273 13.8818C10.5461 13.8818 10.8211 13.6631 10.8836 13.3506C11.1242 12.1381 11.2461 10.9037 11.2461 9.65996V8.88184C11.2461 7.22559 9.90234 5.88184 8.24609 5.88184ZM8.99609 8.88184C8.99609 8.46621 8.66172 8.13184 8.24609 8.13184C7.83047 8.13184 7.49609 8.46621 7.49609 8.88184V9.65996C7.49609 11.5318 7.15234 13.3881 6.48047 15.135L6.29609 15.6131C6.14609 16.0006 6.33984 16.435 6.72734 16.5818C7.11484 16.7287 7.54922 16.5381 7.69609 16.1506L7.88047 15.6725C8.61797 13.7537 8.99609 11.7162 8.99609 9.65996V8.88184Z" fill="white"/>
</svg>
