<svg width="15" height="15" viewBox="0 0 15 15" fill="none" xmlns="http://www.w3.org/2000/svg">
<path d="M0.599609 7.64355C0.599609 7.01531 0.676613 6.40668 0.82082 5.82492C1.20757 5.84601 1.5924 5.75574 1.93278 5.56409C2.27317 5.37243 2.55584 5.08685 2.74956 4.73893C2.94328 4.391 3.0405 3.99428 3.03046 3.59261C3.02043 3.19094 2.90354 2.79997 2.69271 2.46292C3.53902 1.59904 4.58336 0.972925 5.72737 0.643555C5.90307 1.00196 6.17093 1.30293 6.50131 1.51315C6.83169 1.72337 7.2117 1.83464 7.59926 1.83464C7.98682 1.83464 8.36683 1.72337 8.69721 1.51315C9.02759 1.30293 9.29545 1.00196 9.47115 0.643555C10.6152 0.972925 11.6595 1.59904 12.5058 2.46292C12.2947 2.80003 12.1777 3.19115 12.1676 3.593C12.1575 3.99485 12.2547 4.39178 12.4485 4.73985C12.6424 5.08792 12.9252 5.37358 13.2658 5.56521C13.6064 5.75684 13.9915 5.84698 14.3784 5.82565C14.5226 6.40668 14.5996 7.01531 14.5996 7.64355C14.5996 8.2718 14.5226 8.88043 14.3784 9.46219C13.9916 9.44095 13.6067 9.53112 13.2662 9.72272C12.9257 9.91432 12.6429 10.1999 12.4491 10.5478C12.2553 10.8958 12.158 11.2926 12.168 11.6943C12.178 12.096 12.2949 12.4871 12.5058 12.8242C11.6595 13.6881 10.6152 14.3142 9.47115 14.6436C9.29545 14.2851 9.02759 13.9842 8.69721 13.774C8.36683 13.5637 7.98682 13.4525 7.59926 13.4525C7.2117 13.4525 6.83169 13.5637 6.50131 13.774C6.17093 13.9842 5.90307 14.2851 5.72737 14.6436C4.58336 14.3142 3.53902 13.6881 2.69271 12.8242C2.90378 12.4871 3.02084 12.096 3.03095 11.6941C3.04106 11.2923 2.94382 10.8953 2.74998 10.5473C2.55615 10.1992 2.27329 9.91353 1.93269 9.7219C1.59209 9.53027 1.20703 9.44013 0.82012 9.46146C0.676613 8.88116 0.599609 8.27252 0.599609 7.64355ZM3.96258 9.82243C4.4036 10.6148 4.52961 11.5263 4.3574 12.3819C4.64301 12.5925 4.94683 12.7748 5.26534 12.9266C5.90704 12.3302 6.73844 12.0007 7.59996 12.0013C8.482 12.0013 9.30664 12.3434 9.93458 12.9266C10.2531 12.7748 10.5569 12.5925 10.8425 12.3819C10.6657 11.5074 10.8063 10.596 11.2373 9.82243C11.6676 9.04847 12.3581 8.46656 13.1764 8.18827C13.2088 7.8259 13.2088 7.46121 13.1764 7.09884C12.3578 6.82071 11.6671 6.23877 11.2366 5.46468C10.8056 4.69113 10.665 3.77971 10.8418 2.90523C10.5563 2.69455 10.2523 2.51217 9.93388 2.36051C9.29236 2.95675 8.46124 3.28625 7.59996 3.2858C6.73844 3.28643 5.90704 2.95691 5.26534 2.36051C4.94692 2.51218 4.64293 2.69455 4.3574 2.90523C4.5342 3.77971 4.39361 4.69113 3.96258 5.46468C3.53232 6.23864 2.84181 6.82055 2.02348 7.09884C1.99111 7.46121 1.99111 7.8259 2.02348 8.18827C2.84207 8.4664 3.53285 9.04834 3.96328 9.82243H3.96258ZM7.59996 9.82243C7.04298 9.82243 6.50881 9.59287 6.11496 9.18425C5.72111 8.77563 5.49985 8.22143 5.49985 7.64355C5.49985 7.06568 5.72111 6.51148 6.11496 6.10286C6.50881 5.69424 7.04298 5.46468 7.59996 5.46468C8.15694 5.46468 8.69111 5.69424 9.08496 6.10286C9.4788 6.51148 9.70006 7.06568 9.70006 7.64355C9.70006 8.22143 9.4788 8.77563 9.08496 9.18425C8.69111 9.59287 8.15694 9.82243 7.59996 9.82243ZM7.59996 8.36985C7.78562 8.36985 7.96368 8.29333 8.09496 8.15712C8.22624 8.02091 8.29999 7.83618 8.29999 7.64355C8.29999 7.45093 8.22624 7.26619 8.09496 7.12999C7.96368 6.99378 7.78562 6.91726 7.59996 6.91726C7.4143 6.91726 7.23624 6.99378 7.10496 7.12999C6.97368 7.26619 6.89992 7.45093 6.89992 7.64355C6.89992 7.83618 6.97368 8.02091 7.10496 8.15712C7.23624 8.29333 7.4143 8.36985 7.59996 8.36985Z" fill="#374151"/>
</svg>
