<svg width="16" height="17" viewBox="0 0 16 17" fill="none" xmlns="http://www.w3.org/2000/svg">
<path d="M4.89062 14.8686L4.49687 15.7904C3.9125 15.4936 3.375 15.1279 2.8875 14.6998L3.59687 13.9904C3.9875 14.3311 4.42188 14.6279 4.89062 14.8686ZM1.26875 9.37793H0.265625C0.309375 10.0404 0.434375 10.6811 0.63125 11.2873L1.5625 10.9154C1.40937 10.4248 1.30625 9.90918 1.26875 9.37793ZM1.26875 8.37793C1.3125 7.79043 1.43125 7.22168 1.61563 6.6873L0.69375 6.29355C0.459375 6.9498 0.3125 7.6498 0.265625 8.37793H1.26875ZM2.00938 5.76855C2.25313 5.30293 2.54688 4.86855 2.8875 4.47168L2.17812 3.7623C1.75 4.2498 1.38125 4.7873 1.0875 5.37168L2.00938 5.76855ZM12.4062 13.9904C11.9719 14.3654 11.4875 14.6873 10.9656 14.9404L11.3375 15.8717C11.9844 15.5623 12.5813 15.1654 13.1156 14.6967L12.4062 13.9904ZM3.59375 3.76543C4.02813 3.39043 4.5125 3.06855 5.03438 2.81543L4.6625 1.88418C4.01562 2.19355 3.41875 2.59043 2.8875 3.05918L3.59375 3.76543ZM13.9906 11.9873C13.7469 12.4529 13.4531 12.8873 13.1125 13.2842L13.8219 13.9936C14.25 13.5061 14.6188 12.9654 14.9125 12.3842L13.9906 11.9873ZM14.7312 9.37793C14.6875 9.96543 14.5687 10.5342 14.3844 11.0686L15.3062 11.4623C15.5406 10.8029 15.6875 10.1029 15.7312 9.3748H14.7312V9.37793ZM10.0375 15.3154C9.54688 15.4717 9.03125 15.5717 8.5 15.6092V16.6123C9.1625 16.5686 9.80313 16.4436 10.4094 16.2467L10.0375 15.3154ZM7.5 15.6092C6.9125 15.5654 6.34375 15.4467 5.80937 15.2623L5.41563 16.1842C6.075 16.4186 6.775 16.5654 7.50313 16.6092V15.6092H7.5ZM14.4375 6.84043C14.5938 7.33105 14.6937 7.84668 14.7312 8.37793H15.7344C15.6906 7.71543 15.5656 7.0748 15.3687 6.46855L14.4375 6.84043ZM2.8875 13.2842C2.5125 12.8498 2.19062 12.3654 1.9375 11.8436L1.00625 12.2154C1.31562 12.8623 1.7125 13.4592 2.18125 13.9936L2.8875 13.2842ZM8.5 2.14668C9.0875 2.19043 9.65312 2.30918 10.1906 2.49355L10.5844 1.57168C9.92813 1.3373 9.22812 1.19043 8.5 1.14355V2.14668ZM5.9625 2.44043C6.45312 2.28418 6.96875 2.18418 7.5 2.14668V1.14355C6.8375 1.1873 6.19687 1.3123 5.59062 1.50918L5.9625 2.44043ZM13.8219 3.7623L13.1125 4.47168C13.4875 4.90605 13.8094 5.39043 14.0656 5.9123L14.9969 5.54043C14.6875 4.89355 14.2906 4.29668 13.8219 3.7623ZM12.4062 3.76543L13.1156 3.05605C12.6281 2.62793 12.0906 2.25918 11.5063 1.96543L11.1125 2.8873C11.575 3.13105 12.0125 3.4248 12.4062 3.76543Z" fill="#6B7280"/>
<path opacity="0.9999" d="M8 13.1279C8.48325 13.1279 8.875 12.7362 8.875 12.2529C8.875 11.7697 8.48325 11.3779 8 11.3779C7.51675 11.3779 7.125 11.7697 7.125 12.2529C7.125 12.7362 7.51675 13.1279 8 13.1279Z" fill="#6B7280"/>
<path opacity="0.9999" d="M8.24021 10.6279H7.74021C7.53396 10.6279 7.36521 10.4592 7.36521 10.2529C7.36521 8.03418 9.78396 8.25605 9.78396 6.88418C9.78396 6.25918 9.22771 5.62793 7.99021 5.62793C7.08083 5.62793 6.60583 5.92793 6.14021 6.5248C6.01833 6.68105 5.79333 6.7123 5.63396 6.5998L5.22458 6.3123C5.04958 6.19043 5.00896 5.94355 5.14333 5.7748C5.80583 4.9248 6.59333 4.37793 7.99333 4.37793C9.62771 4.37793 11.0371 5.30918 11.0371 6.88418C11.0371 8.99668 8.61833 8.86855 8.61833 10.2529C8.6152 10.4592 8.44646 10.6279 8.24021 10.6279Z" fill="#6B7280"/>
<path opacity="0.01" d="M7.26599 5.08105L7.48474 10.3311C7.49412 10.5311 7.65974 10.6904 7.85974 10.6904H8.14099C8.34099 10.6904 8.50662 10.5311 8.51599 10.3311L8.73474 5.08105C8.74412 4.86855 8.57224 4.69043 8.35974 4.69043H7.64099C7.42849 4.69043 7.25662 4.86855 7.26599 5.08105Z" fill="#6B7280"/>
</svg>
