<svg width="12" height="13" viewBox="0 0 12 13" fill="none" xmlns="http://www.w3.org/2000/svg">
<path d="M6 0.0478516C7.5913 0.0478516 9.11742 0.679993 10.2426 1.80521C11.3679 2.93043 12 4.45655 12 6.04785C12 7.63915 11.3679 9.16527 10.2426 10.2905C9.11742 11.4157 7.5913 12.0479 6 12.0479C4.4087 12.0479 2.88258 11.4157 1.75736 10.2905C0.632141 9.16527 0 7.63915 0 6.04785C0 4.45655 0.632141 2.93043 1.75736 1.80521C2.88258 0.679993 4.4087 0.0478516 6 0.0478516ZM5.4375 2.86035V6.04785C5.4375 6.23535 5.53125 6.41113 5.68828 6.5166L7.93828 8.0166C8.19609 8.19004 8.54531 8.11973 8.71875 7.85957C8.89219 7.59941 8.82187 7.25254 8.56172 7.0791L6.5625 5.74785V2.86035C6.5625 2.54863 6.31172 2.29785 6 2.29785C5.68828 2.29785 5.4375 2.54863 5.4375 2.86035Z" fill="#6B7280"/>
</svg>
