<svg width="13" height="10" viewBox="0 0 13 10" fill="none" xmlns="http://www.w3.org/2000/svg">
<path d="M2.14525 9.24764C1.79162 9.24764 1.48184 9.17833 1.21591 9.03971C0.949983 8.90392 0.743464 8.71437 0.596354 8.47107C0.449243 8.22778 0.375688 7.94912 0.375688 7.63509C0.375688 7.25317 0.484606 6.92076 0.702442 6.63786C0.920278 6.35495 1.20601 6.16116 1.55964 6.05649C1.59359 5.70852 1.68695 5.38459 1.83972 5.08471C1.99248 4.78484 2.19052 4.52315 2.43381 4.29966C2.67711 4.07333 2.95294 3.89793 3.26131 3.77345C3.5725 3.64898 3.90067 3.58674 4.24581 3.58674C4.59661 3.58674 4.92478 3.64756 5.23032 3.76921C5.53586 3.88803 5.80886 4.0606 6.04933 4.28692C6.29262 4.51042 6.49631 4.77635 6.6604 5.08471C7.08193 5.08754 7.4596 5.1809 7.79343 5.36479C8.13008 5.54585 8.39601 5.79197 8.59122 6.10317C8.78642 6.41153 8.88402 6.76092 8.88402 7.15133C8.88402 7.54456 8.78925 7.89961 8.5997 8.21646C8.41016 8.53331 8.15272 8.78368 7.82738 8.96757C7.50487 9.15429 7.14133 9.24764 6.73678 9.24764H2.14525ZM9.37203 6.92217C9.33243 6.49499 9.20936 6.11873 9.00284 5.79339C8.79915 5.46522 8.52332 5.20353 8.17535 5.00833C7.82738 4.8103 7.42 4.69289 6.9532 4.65611C6.88814 4.53164 6.81741 4.41847 6.74103 4.31663C6.66464 4.21478 6.5826 4.11718 6.4949 4.02382C6.6703 3.71829 6.91501 3.47075 7.22904 3.2812C7.54589 3.09166 7.89669 2.99688 8.28144 2.99688C8.66902 2.99688 9.02123 3.09166 9.33808 3.2812C9.65776 3.47075 9.91096 3.72536 10.0977 4.04504C10.2844 4.36189 10.3778 4.71411 10.3778 5.10169C10.3778 5.47795 10.2872 5.82309 10.1062 6.13712C9.92794 6.44831 9.68323 6.71 9.37203 6.92217ZM5.82017 3.14116L5.17515 2.4919C5.10443 2.424 5.06906 2.34196 5.06906 2.24577C5.07189 2.14676 5.10726 2.0633 5.17515 1.9954C5.24305 1.92751 5.32509 1.89356 5.42128 1.89356C5.51747 1.89356 5.59951 1.92751 5.66741 1.9954L6.32091 2.64891C6.38881 2.71681 6.42134 2.79885 6.41852 2.89504C6.41852 2.99122 6.38598 3.07327 6.32091 3.14116C6.25585 3.20906 6.1738 3.24442 6.07479 3.24725C5.97577 3.24725 5.8909 3.21189 5.82017 3.14116ZM8.28144 2.3264C8.18525 2.3264 8.10179 2.29104 8.03107 2.22031C7.96317 2.14959 7.92922 2.06754 7.92922 1.97419V1.05333C7.92922 0.957146 7.96317 0.875104 8.03107 0.807207C8.10179 0.736481 8.18525 0.701118 8.28144 0.701118C8.37762 0.701118 8.45967 0.736481 8.52756 0.807207C8.59829 0.875104 8.63365 0.957146 8.63365 1.05333V1.97419C8.63365 2.06754 8.59829 2.14959 8.52756 2.22031C8.45967 2.29104 8.37762 2.3264 8.28144 2.3264ZM11.4047 5.4539C11.3113 5.4539 11.2293 5.41995 11.1586 5.35206C11.0878 5.28416 11.0525 5.2007 11.0525 5.10169C11.0525 5.0055 11.0878 4.92346 11.1586 4.85556C11.2293 4.78484 11.3113 4.74947 11.4047 4.74947H12.3255C12.4217 4.74947 12.5038 4.78484 12.5717 4.85556C12.6396 4.92346 12.6735 5.0055 12.6735 5.10169C12.6735 5.2007 12.6396 5.28416 12.5717 5.35206C12.5038 5.41995 12.4217 5.4539 12.3255 5.4539H11.4047ZM10.242 3.14116C10.1769 3.07327 10.1429 2.99122 10.1401 2.89504C10.1401 2.79885 10.1741 2.71681 10.242 2.64891L10.8997 1.9954C10.9676 1.92751 11.0497 1.89356 11.1458 1.89356C11.242 1.89356 11.3241 1.92751 11.392 1.9954C11.4599 2.0633 11.4938 2.14676 11.4938 2.24577C11.4938 2.34196 11.4599 2.424 11.392 2.4919L10.7427 3.14116C10.6748 3.21189 10.5899 3.24725 10.4881 3.24725C10.3891 3.24442 10.307 3.20906 10.242 3.14116ZM10.8997 8.21646L10.242 7.5672C10.1741 7.4993 10.1401 7.41726 10.1401 7.32107C10.1401 7.22205 10.1741 7.1386 10.242 7.0707C10.3099 7.0028 10.3919 6.96885 10.4881 6.96885C10.5843 6.96885 10.6663 7.0028 10.7342 7.0707L11.392 7.71996C11.4599 7.78503 11.4938 7.86707 11.4938 7.96609C11.4938 8.06228 11.4599 8.14432 11.392 8.21222C11.3241 8.28011 11.242 8.31406 11.1458 8.31406C11.0497 8.31689 10.9676 8.28436 10.8997 8.21646Z" fill="#374151"/>
</svg>
