<svg width="16" height="17" viewBox="0 0 16 17" fill="none" xmlns="http://www.w3.org/2000/svg">
<g clip-path="url(#clip0_2791_628)">
<path d="M0.787109 8.54785C1.41378 5.13452 4.40511 2.54785 7.99978 2.54785C11.5944 2.54785 14.5851 5.13452 15.2124 8.54785C14.5858 11.9612 11.5944 14.5479 7.99978 14.5479C4.40511 14.5479 1.41444 11.9612 0.787109 8.54785ZM7.99978 11.8812C8.88383 11.8812 9.73168 11.53 10.3568 10.9049C10.9819 10.2798 11.3331 9.43191 11.3331 8.54785C11.3331 7.6638 10.9819 6.81595 10.3568 6.19083C9.73168 5.56571 8.88383 5.21452 7.99978 5.21452C7.11572 5.21452 6.26788 5.56571 5.64275 6.19083C5.01763 6.81595 4.66644 7.6638 4.66644 8.54785C4.66644 9.43191 5.01763 10.2798 5.64275 10.9049C6.26788 11.53 7.11572 11.8812 7.99978 11.8812ZM7.99978 10.5479C7.46934 10.5479 6.96064 10.3371 6.58556 9.96207C6.21049 9.58699 5.99978 9.07828 5.99978 8.54785C5.99978 8.01742 6.21049 7.50871 6.58556 7.13364C6.96064 6.75856 7.46934 6.54785 7.99978 6.54785C8.53021 6.54785 9.03892 6.75856 9.41399 7.13364C9.78906 7.50871 9.99978 8.01742 9.99978 8.54785C9.99978 9.07828 9.78906 9.58699 9.41399 9.96207C9.03892 10.3371 8.53021 10.5479 7.99978 10.5479Z" fill="#374151"/>
</g>
<defs>
<clipPath id="clip0_2791_628">
<rect width="16" height="16" fill="white" transform="translate(0 0.547852)"/>
</clipPath>
</defs>
</svg>
