<svg width="17" height="17" viewBox="0 0 17 17" fill="none" xmlns="http://www.w3.org/2000/svg">
<g clip-path="url(#clip0_2787_6416)">
<path d="M1.77637 8.54785C2.40303 5.13452 5.39437 2.54785 8.98903 2.54785C12.5837 2.54785 15.5744 5.13452 16.2017 8.54785C15.575 11.9612 12.5837 14.5479 8.98903 14.5479C5.39437 14.5479 2.4037 11.9612 1.77637 8.54785ZM8.98903 11.8812C9.87309 11.8812 10.7209 11.53 11.3461 10.9049C11.9712 10.2798 12.3224 9.43191 12.3224 8.54785C12.3224 7.6638 11.9712 6.81595 11.3461 6.19083C10.7209 5.56571 9.87309 5.21452 8.98903 5.21452C8.10498 5.21452 7.25713 5.56571 6.63201 6.19083C6.00689 6.81595 5.6557 7.6638 5.6557 8.54785C5.6557 9.43191 6.00689 10.2798 6.63201 10.9049C7.25713 11.53 8.10498 11.8812 8.98903 11.8812ZM8.98903 10.5479C8.4586 10.5479 7.94989 10.3371 7.57482 9.96207C7.19975 9.58699 6.98903 9.07828 6.98903 8.54785C6.98903 8.01742 7.19975 7.50871 7.57482 7.13364C7.94989 6.75856 8.4586 6.54785 8.98903 6.54785C9.51947 6.54785 10.0282 6.75856 10.4032 7.13364C10.7783 7.50871 10.989 8.01742 10.989 8.54785C10.989 9.07828 10.7783 9.58699 10.4032 9.96207C10.0282 10.3371 9.51947 10.5479 8.98903 10.5479Z" fill="#EF4444"/>
</g>
<defs>
<clipPath id="clip0_2787_6416">
<rect width="16" height="16" fill="white" transform="translate(0.989258 0.547852)"/>
</clipPath>
</defs>
</svg>
