<svg width="24" height="16" viewBox="0 0 24 16" fill="none" xmlns="http://www.w3.org/2000/svg">
<path d="M0.75 3.33984C0.75 1.96094 1.87109 0.839844 3.25 0.839844H13.25C14.6289 0.839844 15.75 1.96094 15.75 3.33984V13.3398C15.75 14.7188 14.6289 15.8398 13.25 15.8398H3.25C1.87109 15.8398 0.75 14.7188 0.75 13.3398V3.33984ZM22.5898 2.23828C22.9961 2.45703 23.25 2.87891 23.25 3.33984V13.3398C23.25 13.8008 22.9961 14.2227 22.5898 14.4414C22.1836 14.6602 21.6914 14.6367 21.3047 14.3789L17.5547 11.8789L17 11.5078V10.8398V5.83984V5.17188L17.5547 4.80078L21.3047 2.30078C21.6875 2.04688 22.1797 2.01953 22.5898 2.23828Z" fill="#9CA3AF"/>
</svg>
