<svg width="14" height="15" viewBox="0 0 14 15" fill="none" xmlns="http://www.w3.org/2000/svg">
<path d="M1 0.75C0.446875 0.75 0 1.19687 0 1.75V4.75C0 5.30312 0.446875 5.75 1 5.75C1.55313 5.75 2 5.30312 2 4.75V2.75H4C4.55312 2.75 5 2.30313 5 1.75C5 1.19687 4.55312 0.75 4 0.75H1ZM2 10.75C2 10.1969 1.55313 9.75 1 9.75C0.446875 9.75 0 10.1969 0 10.75V13.75C0 14.3031 0.446875 14.75 1 14.75H4C4.55312 14.75 5 14.3031 5 13.75C5 13.1969 4.55312 12.75 4 12.75H2V10.75ZM10 0.75C9.44687 0.75 9 1.19687 9 1.75C9 2.30313 9.44687 2.75 10 2.75H12V4.75C12 5.30312 12.4469 5.75 13 5.75C13.5531 5.75 14 5.30312 14 4.75V1.75C14 1.19687 13.5531 0.75 13 0.75H10ZM14 10.75C14 10.1969 13.5531 9.75 13 9.75C12.4469 9.75 12 10.1969 12 10.75V12.75H10C9.44687 12.75 9 13.1969 9 13.75C9 14.3031 9.44687 14.75 10 14.75H13C13.5531 14.75 14 14.3031 14 13.75V10.75Z" fill="black"/>
</svg>
