<svg width="13" height="13" viewBox="0 0 13 13" fill="none" xmlns="http://www.w3.org/2000/svg">
<path d="M8.939 7.85292C11.0166 7.85292 12.6994 6.17012 12.6994 4.09248C12.6994 3.73288 12.6477 3.38504 12.5537 3.05365C12.4809 2.79982 12.1683 2.74342 11.9826 2.92909L10.1776 4.7341C10.1071 4.80461 10.0107 4.84457 9.91201 4.84457H8.56295C8.35613 4.84457 8.18691 4.67535 8.18691 4.46852V3.11946C8.18691 3.02075 8.22686 2.92439 8.29737 2.85388L10.1024 1.04887C10.2881 0.863194 10.2293 0.550607 9.97782 0.477749C9.64643 0.383737 9.29859 0.332031 8.939 0.332031C6.86135 0.332031 5.17855 2.01483 5.17855 4.09248C5.17855 4.54138 5.25846 4.97383 5.40183 5.37338L1.13372 9.64149C0.835236 9.93997 0.666016 10.3466 0.666016 10.7696C0.666016 11.651 1.3805 12.3655 2.26185 12.3655C2.68491 12.3655 3.0915 12.1962 3.38999 11.8978L7.65809 7.62965C8.05764 7.77536 8.49009 7.85292 8.939 7.85292ZM2.54624 9.92117C2.69584 9.92117 2.83931 9.9806 2.94509 10.0864C3.05088 10.1922 3.11031 10.3356 3.11031 10.4852C3.11031 10.6348 3.05088 10.7783 2.94509 10.8841C2.83931 10.9899 2.69584 11.0493 2.54624 11.0493C2.39664 11.0493 2.25317 10.9899 2.14738 10.8841C2.0416 10.7783 1.98217 10.6348 1.98217 10.4852C1.98217 10.3356 2.0416 10.1922 2.14738 10.0864C2.25317 9.9806 2.39664 9.92117 2.54624 9.92117Z" fill="#2563EB"/>
</svg>
