<svg width="14" height="15" viewBox="0 0 14 15" fill="none" xmlns="http://www.w3.org/2000/svg">
<path d="M9.62402 9.25C12.0412 9.25 13.999 7.29219 13.999 4.875C13.999 4.45664 13.9389 4.05195 13.8295 3.66641C13.7447 3.37109 13.3811 3.30547 13.165 3.52148L11.065 5.62148C10.983 5.70352 10.8709 5.75 10.7561 5.75H9.18652C8.9459 5.75 8.74902 5.55312 8.74902 5.3125V3.74297C8.74902 3.62812 8.79551 3.51602 8.87754 3.43398L10.9775 1.33398C11.1936 1.11797 11.1252 0.754297 10.8326 0.669531C10.4471 0.560156 10.0424 0.5 9.62402 0.5C7.20684 0.5 5.24902 2.45781 5.24902 4.875C5.24902 5.39727 5.34199 5.90039 5.50879 6.36523L0.543164 11.3309C0.195898 11.6781 -0.000976562 12.1512 -0.000976562 12.6434C-0.000976562 13.6687 0.830274 14.5 1.85566 14.5C2.34785 14.5 2.8209 14.3031 3.16816 13.9559L8.13379 8.99023C8.59863 9.15977 9.10176 9.25 9.62402 9.25ZM2.18652 11.6562C2.36057 11.6562 2.52749 11.7254 2.65056 11.8485C2.77363 11.9715 2.84277 12.1385 2.84277 12.3125C2.84277 12.4865 2.77363 12.6535 2.65056 12.7765C2.52749 12.8996 2.36057 12.9688 2.18652 12.9688C2.01248 12.9688 1.84556 12.8996 1.72248 12.7765C1.59941 12.6535 1.53027 12.4865 1.53027 12.3125C1.53027 12.1385 1.59941 11.9715 1.72248 11.8485C1.84556 11.7254 2.01248 11.6562 2.18652 11.6562Z" fill="#2563EB"/>
</svg>
