<svg width="16" height="17" viewBox="0 0 16 17" fill="none" xmlns="http://www.w3.org/2000/svg">
<path d="M10.25 10.0479C12.3219 10.0479 14 8.36973 14 6.29785C14 5.93926 13.9484 5.59238 13.8547 5.26191C13.782 5.00879 13.4703 4.95254 13.2852 5.1377L11.4852 6.9377C11.4148 7.00801 11.3187 7.04785 11.2203 7.04785H9.875C9.66875 7.04785 9.5 6.8791 9.5 6.67285V5.32754C9.5 5.2291 9.53984 5.13301 9.61016 5.0627L11.4102 3.2627C11.5953 3.07754 11.5367 2.76582 11.2859 2.69316C10.9555 2.59941 10.6086 2.54785 10.25 2.54785C8.17812 2.54785 6.5 4.22598 6.5 6.29785C6.5 6.74551 6.57969 7.17676 6.72266 7.5752L2.46641 11.8314C2.16875 12.1291 2 12.5346 2 12.9564C2 13.8354 2.7125 14.5479 3.59141 14.5479C4.01328 14.5479 4.41875 14.3791 4.71641 14.0814L8.97266 9.8252C9.37109 9.97051 9.80234 10.0479 10.25 10.0479ZM3.875 12.1104C4.02418 12.1104 4.16726 12.1696 4.27275 12.2751C4.37824 12.3806 4.4375 12.5237 4.4375 12.6729C4.4375 12.822 4.37824 12.9651 4.27275 13.0706C4.16726 13.1761 4.02418 13.2354 3.875 13.2354C3.72582 13.2354 3.58274 13.1761 3.47725 13.0706C3.37176 12.9651 3.3125 12.822 3.3125 12.6729C3.3125 12.5237 3.37176 12.3806 3.47725 12.2751C3.58274 12.1696 3.72582 12.1104 3.875 12.1104Z" fill="#374151"/>
</svg>
