<svg width="17" height="17" viewBox="0 0 17 17" fill="none" xmlns="http://www.w3.org/2000/svg">
<path d="M11.2393 10.0479C13.3111 10.0479 14.9893 8.36973 14.9893 6.29785C14.9893 5.93926 14.9377 5.59238 14.8439 5.26191C14.7713 5.00879 14.4596 4.95254 14.2744 5.1377L12.4744 6.9377C12.4041 7.00801 12.308 7.04785 12.2096 7.04785H10.8643C10.658 7.04785 10.4893 6.8791 10.4893 6.67285V5.32754C10.4893 5.2291 10.5291 5.13301 10.5994 5.0627L12.3994 3.2627C12.5846 3.07754 12.526 2.76582 12.2752 2.69316C11.9447 2.59941 11.5979 2.54785 11.2393 2.54785C9.16738 2.54785 7.48926 4.22598 7.48926 6.29785C7.48926 6.74551 7.56895 7.17676 7.71191 7.5752L3.45566 11.8314C3.15801 12.1291 2.98926 12.5346 2.98926 12.9564C2.98926 13.8354 3.70176 14.5479 4.58066 14.5479C5.00254 14.5479 5.40801 14.3791 5.70566 14.0814L9.96191 9.8252C10.3604 9.97051 10.7916 10.0479 11.2393 10.0479ZM4.86426 12.1104C5.01344 12.1104 5.15652 12.1696 5.26201 12.2751C5.36749 12.3806 5.42676 12.5237 5.42676 12.6729C5.42676 12.822 5.36749 12.9651 5.26201 13.0706C5.15652 13.1761 5.01344 13.2354 4.86426 13.2354C4.71507 13.2354 4.572 13.1761 4.46651 13.0706C4.36102 12.9651 4.30176 12.822 4.30176 12.6729C4.30176 12.5237 4.36102 12.3806 4.46651 12.2751C4.572 12.1696 4.71507 12.1104 4.86426 12.1104Z" fill="#EF4444"/>
</svg>
