<svg width="21" height="14" viewBox="0 0 21 14" fill="none" xmlns="http://www.w3.org/2000/svg">
<path d="M9.60039 0.553783C9.99171 0.275275 10.5135 0.275275 10.9048 0.553783C11.698 1.10022 12.6675 1.47392 13.637 1.47392C14.5853 1.47392 15.5901 1.09317 16.3657 0.553783C16.7852 0.254123 17.3563 0.278801 17.7476 0.613715C18.2553 1.03324 18.8934 1.35405 19.5315 1.50212C20.1379 1.64314 20.5151 2.24951 20.3741 2.85588C20.233 3.46225 19.6267 3.83947 19.0203 3.69846C18.1566 3.49751 17.4374 3.11676 16.9685 2.8171C15.9461 3.36707 14.8004 3.73019 13.637 3.73019C12.5124 3.73019 11.5006 3.38117 10.8026 3.06388C10.5981 2.96869 10.4112 2.87703 10.2526 2.79242C10.0939 2.87703 9.91062 2.97222 9.70262 3.06388C9.00459 3.38117 7.9928 3.73019 6.86819 3.73019C5.7048 3.73019 4.55904 3.36707 3.53667 2.82063C3.06426 3.11676 2.3486 3.50103 1.48487 3.70198C0.878503 3.843 0.272131 3.46578 0.131114 2.85941C-0.00990234 2.25303 0.367317 1.64666 0.973689 1.50565C1.60826 1.35405 2.24989 1.03324 2.75403 0.613715C3.14535 0.278801 3.71646 0.257648 4.13599 0.553783C4.91863 1.09317 5.91985 1.47392 6.86819 1.47392C7.83768 1.47392 8.80717 1.10022 9.60039 0.553783ZM10.9048 10.707C11.698 11.2534 12.6675 11.6271 13.637 11.6271C14.5853 11.6271 15.5901 11.2464 16.3657 10.707C16.7852 10.4073 17.3563 10.432 17.7476 10.7669C18.2553 11.1864 18.8934 11.5073 19.5315 11.6553C20.1379 11.7963 20.5151 12.4027 20.3741 13.0091C20.233 13.6155 19.6267 13.9927 19.0203 13.8517C18.1566 13.6507 17.4374 13.27 16.9685 12.9703C15.9461 13.5203 14.8004 13.8834 13.637 13.8834C12.5124 13.8834 11.5006 13.5344 10.8026 13.2171C10.5981 13.1219 10.4112 13.0302 10.2526 12.9456C10.0939 13.0302 9.91062 13.1254 9.70262 13.2171C9.00459 13.5344 7.9928 13.8834 6.86819 13.8834C5.7048 13.8834 4.55904 13.5203 3.53667 12.9738C3.06426 13.27 2.3486 13.6542 1.48487 13.8552C0.878503 13.9962 0.272131 13.619 0.131114 13.0126C-0.00990234 12.4062 0.367317 11.7999 0.973689 11.6589C1.61179 11.5108 2.24989 11.19 2.75755 10.7704C3.14887 10.4391 3.71999 10.4144 4.13951 10.7105C4.91863 11.2464 5.91985 11.6271 6.86819 11.6271C7.83768 11.6271 8.80717 11.2534 9.60039 10.707C9.99171 10.4285 10.5135 10.4285 10.9048 10.707ZM10.9048 5.63038C11.698 6.17683 12.6675 6.55052 13.637 6.55052C14.5853 6.55052 15.5901 6.16977 16.3657 5.63038C16.7852 5.33072 17.3563 5.3554 17.7476 5.69032C18.2553 6.10984 18.8934 6.43066 19.5315 6.57872C20.1379 6.71974 20.5151 7.32611 20.3741 7.93248C20.233 8.53886 19.6267 8.91607 19.0203 8.77506C18.1566 8.57411 17.4374 8.19336 16.9685 7.8937C15.9461 8.44367 14.8004 8.80679 13.637 8.80679C12.5124 8.80679 11.5006 8.45777 10.8026 8.14048C10.5981 8.0453 10.4112 7.95364 10.2526 7.86903C10.0939 7.95364 9.91062 8.04882 9.70262 8.14048C9.00459 8.45777 7.9928 8.80679 6.86819 8.80679C5.7048 8.80679 4.55904 8.44367 3.53667 7.89723C3.06426 8.19336 2.3486 8.57763 1.48487 8.77858C0.878503 8.9196 0.272131 8.54238 0.131114 7.93601C-0.00990234 7.32964 0.367317 6.72326 0.973689 6.58225C1.61179 6.43418 2.24989 6.11337 2.75755 5.69384C3.14887 5.35893 3.71999 5.33778 4.13951 5.63391C4.91863 6.16977 5.91985 6.55052 6.86819 6.55052C7.83768 6.55052 8.80717 6.17683 9.60039 5.63038C9.99171 5.35188 10.5135 5.35188 10.9048 5.63038Z" fill="white"/>
</svg>
