<svg width="9" height="13" viewBox="0 0 9 13" fill="none" xmlns="http://www.w3.org/2000/svg">
<path d="M5.05547 11.7479C6.25781 10.2432 9 6.59629 9 4.54785C9 2.06348 6.98438 0.0478516 4.5 0.0478516C2.01562 0.0478516 0 2.06348 0 4.54785C0 6.59629 2.74219 10.2432 3.94453 11.7479C4.23281 12.1064 4.76719 12.1064 5.05547 11.7479ZM4.5 3.04785C4.89782 3.04785 5.27936 3.20589 5.56066 3.48719C5.84196 3.7685 6 4.15003 6 4.54785C6 4.94568 5.84196 5.32721 5.56066 5.60851C5.27936 5.88982 4.89782 6.04785 4.5 6.04785C4.10218 6.04785 3.72064 5.88982 3.43934 5.60851C3.15804 5.32721 3 4.94568 3 4.54785C3 4.15003 3.15804 3.7685 3.43934 3.48719C3.72064 3.20589 4.10218 3.04785 4.5 3.04785Z" fill="#6B7280"/>
</svg>
