<svg width="14" height="15" viewBox="0 0 14 15" fill="none" xmlns="http://www.w3.org/2000/svg">
<path d="M13.6202 1.06339C13.8964 1.25479 14.0413 1.58565 13.9893 1.91651L12.2393 13.2915C12.1983 13.5567 12.037 13.7892 11.8018 13.9204C11.5667 14.0517 11.2851 14.0681 11.0362 13.9642L7.76591 12.6052L5.89286 14.6314C5.6495 14.8966 5.26669 14.9841 4.93036 14.8528C4.59404 14.7216 4.37529 14.3962 4.37529 14.0353V11.7493C4.37529 11.6399 4.4163 11.536 4.49013 11.4567L9.07294 6.45557C9.23153 6.28331 9.22607 6.01807 9.062 5.85401C8.89794 5.68995 8.63271 5.67901 8.46044 5.83487L2.89872 10.7759L0.484269 9.56729C0.194425 9.42237 0.00848793 9.13253 0.0002848 8.80987C-0.00791833 8.48721 0.161613 8.18643 0.440519 8.0251L12.6905 1.0251C12.9831 0.858308 13.344 0.874714 13.6202 1.06339Z" fill="white"/>
</svg>
