<svg width="8" height="9" viewBox="0 0 8 9" fill="none" xmlns="http://www.w3.org/2000/svg">
<path d="M7.27266 2.24629C7.56563 1.95332 7.56563 1.47754 7.27266 1.18457C6.97969 0.891602 6.50391 0.891602 6.21094 1.18457L3.74297 3.65488L1.27266 1.18691C0.979687 0.893945 0.503906 0.893945 0.210938 1.18691C-0.0820312 1.47988 -0.0820312 1.95566 0.210938 2.24863L2.68125 4.7166L0.213281 7.18691C-0.0796874 7.47988 -0.0796874 7.95566 0.213281 8.24863C0.50625 8.5416 0.982031 8.5416 1.275 8.24863L3.74297 5.77832L6.21328 8.24629C6.50625 8.53926 6.98203 8.53926 7.275 8.24629C7.56797 7.95332 7.56797 7.47754 7.275 7.18457L4.80469 4.7166L7.27266 2.24629Z" fill="#991B1B"/>
</svg>
