<svg width="14" height="15" viewBox="0 0 14 15" fill="none" xmlns="http://www.w3.org/2000/svg">
<path d="M6.99997 1.42285C7.38825 1.42285 7.74645 1.62793 7.94333 1.96426L13.8496 12.0268C14.0492 12.3658 14.0492 12.7842 13.855 13.1232C13.6609 13.4623 13.2972 13.6729 12.9062 13.6729H1.09372C0.702702 13.6729 0.33903 13.4623 0.144889 13.1232C-0.0492514 12.7842 -0.0465171 12.3631 0.150358 12.0268L6.05661 1.96426C6.25348 1.62793 6.61169 1.42285 6.99997 1.42285ZM6.99997 4.92285C6.6363 4.92285 6.34372 5.21543 6.34372 5.5791V8.6416C6.34372 9.00527 6.6363 9.29785 6.99997 9.29785C7.36364 9.29785 7.65622 9.00527 7.65622 8.6416V5.5791C7.65622 5.21543 7.36364 4.92285 6.99997 4.92285ZM7.87497 11.0479C7.87497 10.8158 7.78278 10.5932 7.61869 10.4291C7.45459 10.265 7.23203 10.1729 6.99997 10.1729C6.7679 10.1729 6.54534 10.265 6.38125 10.4291C6.21715 10.5932 6.12497 10.8158 6.12497 11.0479C6.12497 11.2799 6.21715 11.5025 6.38125 11.6666C6.54534 11.8307 6.7679 11.9229 6.99997 11.9229C7.23203 11.9229 7.45459 11.8307 7.61869 11.6666C7.78278 11.5025 7.87497 11.2799 7.87497 11.0479Z" fill="white"/>
</svg>
