<svg width="10" height="8" viewBox="0 0 10 8" fill="none" xmlns="http://www.w3.org/2000/svg">
<path d="M4.79883 2.31515C4.56685 2.31515 4.36881 2.28686 4.20473 2.23028C4.04347 2.17087 3.90202 2.09873 3.78037 2.01386C3.66155 1.92616 3.55122 1.83987 3.44938 1.755C3.35036 1.67013 3.24851 1.5994 3.14384 1.54282C3.03917 1.48341 2.91893 1.45371 2.78314 1.45371C2.64452 1.45371 2.52287 1.48341 2.41819 1.54282C2.31635 1.5994 2.21592 1.67013 2.1169 1.755C2.01788 1.83987 1.90614 1.92616 1.78166 2.01386C1.65718 2.09873 1.50441 2.17087 1.32335 2.23028C1.14512 2.28686 0.924459 2.31515 0.661359 2.31515H0.640141C0.55527 2.31515 0.483129 2.28686 0.42372 2.23028C0.367139 2.17087 0.338848 2.09873 0.338848 2.01386C0.338848 1.93181 0.367139 1.8625 0.42372 1.80592C0.483129 1.74651 0.55527 1.71681 0.640141 1.71681H0.661359C0.887682 1.71681 1.07581 1.67579 1.22575 1.59374C1.37569 1.5117 1.53129 1.4141 1.69254 1.30094C1.83117 1.19909 1.98818 1.10008 2.16358 1.00389C2.34181 0.904874 2.54833 0.855366 2.78314 0.855366C3.02644 0.855366 3.2372 0.907703 3.41543 1.01238C3.59649 1.11422 3.75633 1.21748 3.89495 1.32216C4.03923 1.43249 4.17785 1.52585 4.31082 1.60223C4.44661 1.67862 4.60928 1.71681 4.79883 1.71681C4.98837 1.71681 5.14963 1.67862 5.28259 1.60223C5.41556 1.52585 5.5556 1.43249 5.70271 1.32216C5.84133 1.21748 5.99976 1.11422 6.17798 1.01238C6.35904 0.907703 6.57122 0.855366 6.81452 0.855366C7.04933 0.855366 7.25443 0.904874 7.42983 1.00389C7.60806 1.10008 7.76649 1.19909 7.90511 1.30094C8.06354 1.4141 8.21772 1.5117 8.36766 1.59374C8.5176 1.67579 8.70715 1.71681 8.9363 1.71681H8.95752C9.03956 1.71681 9.11028 1.74651 9.16969 1.80592C9.2291 1.8625 9.25881 1.93181 9.25881 2.01386C9.25881 2.09873 9.2291 2.17087 9.16969 2.23028C9.11028 2.28686 9.03956 2.31515 8.95752 2.31515H8.9363C8.67037 2.31515 8.44829 2.28686 8.27006 2.23028C8.09183 2.17087 7.93906 2.09873 7.81175 2.01386C7.68728 1.92616 7.57553 1.83987 7.47651 1.755C7.3775 1.67013 7.27565 1.5994 7.17098 1.54282C7.06913 1.48341 6.95031 1.45371 6.81452 1.45371C6.67872 1.45371 6.55849 1.48341 6.45382 1.54282C6.34914 1.5994 6.24588 1.67013 6.14404 1.755C6.04502 1.83987 5.93469 1.92616 5.81304 2.01386C5.69422 2.09873 5.55277 2.17087 5.38868 2.23028C5.22743 2.28686 5.03081 2.31515 4.79883 2.31515ZM4.79883 4.87826C4.56685 4.87826 4.36881 4.84997 4.20473 4.79339C4.04347 4.73398 3.90202 4.66184 3.78037 4.57697C3.66155 4.4921 3.55122 4.40722 3.44938 4.32235C3.35036 4.23465 3.24851 4.16251 3.14384 4.10593C3.03917 4.04652 2.91893 4.01682 2.78314 4.01682C2.64452 4.01682 2.52287 4.04652 2.41819 4.10593C2.31635 4.16251 2.21592 4.23465 2.1169 4.32235C2.01788 4.40722 1.90614 4.4921 1.78166 4.57697C1.65718 4.66184 1.50441 4.73398 1.32335 4.79339C1.14512 4.84997 0.924459 4.87826 0.661359 4.87826H0.640141C0.55527 4.87826 0.483129 4.84997 0.42372 4.79339C0.367139 4.73398 0.338848 4.66325 0.338848 4.58121C0.338848 4.49634 0.367139 4.42561 0.42372 4.36903C0.483129 4.30962 0.55527 4.27992 0.640141 4.27992H0.661359C0.887682 4.27992 1.07581 4.2389 1.22575 4.15685C1.37569 4.07481 1.53129 3.97721 1.69254 3.86405C1.83117 3.76503 1.98818 3.66602 2.16358 3.567C2.34181 3.46798 2.54833 3.41847 2.78314 3.41847C3.02644 3.41847 3.2372 3.47081 3.41543 3.57549C3.59649 3.68016 3.75633 3.78342 3.89495 3.88527C4.03923 3.9956 4.17785 4.08896 4.31082 4.16534C4.44661 4.24173 4.60928 4.27992 4.79883 4.27992C4.98837 4.27992 5.14963 4.24173 5.28259 4.16534C5.41556 4.08896 5.5556 3.9956 5.70271 3.88527C5.84133 3.78342 5.99976 3.68016 6.17798 3.57549C6.35904 3.47081 6.57122 3.41847 6.81452 3.41847C7.04933 3.41847 7.25443 3.46798 7.42983 3.567C7.60806 3.66602 7.76649 3.76503 7.90511 3.86405C8.06354 3.97721 8.21772 4.07481 8.36766 4.15685C8.5176 4.2389 8.70715 4.27992 8.9363 4.27992H8.95752C9.03956 4.27992 9.11028 4.30962 9.16969 4.36903C9.2291 4.42561 9.25881 4.49634 9.25881 4.58121C9.25881 4.66325 9.2291 4.73398 9.16969 4.79339C9.11028 4.84997 9.03956 4.87826 8.95752 4.87826H8.9363C8.67037 4.87826 8.44829 4.84997 8.27006 4.79339C8.09183 4.73398 7.93906 4.66184 7.81175 4.57697C7.68728 4.4921 7.57553 4.40722 7.47651 4.32235C7.3775 4.23465 7.27565 4.16251 7.17098 4.10593C7.06913 4.04652 6.95031 4.01682 6.81452 4.01682C6.67872 4.01682 6.55849 4.04652 6.45382 4.10593C6.34914 4.16251 6.24588 4.23465 6.14404 4.32235C6.04502 4.40722 5.93469 4.4921 5.81304 4.57697C5.69422 4.66184 5.55277 4.73398 5.38868 4.79339C5.22743 4.84997 5.03081 4.87826 4.79883 4.87826ZM4.79883 7.44561C4.56685 7.44561 4.36881 7.41591 4.20473 7.3565C4.04347 7.29992 3.90202 7.22919 3.78037 7.14432C3.66155 7.05662 3.55122 6.97033 3.44938 6.88546C3.35036 6.80059 3.24851 6.72986 3.14384 6.67328C3.03917 6.61387 2.91893 6.58417 2.78314 6.58417C2.64452 6.58417 2.52287 6.61387 2.41819 6.67328C2.31635 6.72986 2.21592 6.80059 2.1169 6.88546C2.01788 6.97033 1.90614 7.05662 1.78166 7.14432C1.65718 7.22919 1.50441 7.29992 1.32335 7.3565C1.14512 7.41591 0.924459 7.44561 0.661359 7.44561H0.640141C0.55527 7.44561 0.483129 7.41591 0.42372 7.3565C0.367139 7.29709 0.338848 7.22636 0.338848 7.14432C0.338848 7.06228 0.367139 6.99297 0.42372 6.93638C0.483129 6.87697 0.55527 6.84727 0.640141 6.84727H0.661359C0.887682 6.84727 1.07581 6.80625 1.22575 6.72421C1.37569 6.64216 1.53129 6.54456 1.69254 6.4314C1.83117 6.32956 1.98818 6.23054 2.16358 6.13435C2.34181 6.03534 2.54833 5.98583 2.78314 5.98583C3.02644 5.98583 3.2372 6.03816 3.41543 6.14284C3.59649 6.24468 3.75633 6.34653 3.89495 6.44838C4.03923 6.56154 4.17785 6.65631 4.31082 6.73269C4.44661 6.80908 4.60928 6.84727 4.79883 6.84727C4.98837 6.84727 5.14963 6.80908 5.28259 6.73269C5.41556 6.65631 5.5556 6.56154 5.70271 6.44838C5.84133 6.34653 5.99976 6.24468 6.17798 6.14284C6.35904 6.03816 6.57122 5.98583 6.81452 5.98583C7.04933 5.98583 7.25443 6.03534 7.42983 6.13435C7.60806 6.23054 7.76649 6.32956 7.90511 6.4314C8.06354 6.54456 8.21772 6.64216 8.36766 6.72421C8.5176 6.80625 8.70715 6.84727 8.9363 6.84727H8.95752C9.03956 6.84727 9.11028 6.87697 9.16969 6.93638C9.2291 6.99297 9.25881 7.06228 9.25881 7.14432C9.25881 7.22636 9.2291 7.29709 9.16969 7.3565C9.11028 7.41591 9.03956 7.44561 8.95752 7.44561H8.9363C8.67037 7.44561 8.44829 7.41591 8.27006 7.3565C8.09183 7.29992 7.93906 7.22919 7.81175 7.14432C7.68728 7.05662 7.57553 6.97033 7.47651 6.88546C7.3775 6.80059 7.27565 6.72986 7.17098 6.67328C7.06913 6.61387 6.95031 6.58417 6.81452 6.58417C6.67872 6.58417 6.55849 6.61387 6.45382 6.67328C6.34914 6.72986 6.24588 6.80059 6.14404 6.88546C6.04502 6.97033 5.93469 7.05662 5.81304 7.14432C5.69422 7.22919 5.55277 7.29992 5.38868 7.3565C5.22743 7.41591 5.03081 7.44561 4.79883 7.44561Z" fill="#374151"/>
</svg>
