<svg width="15" height="17" viewBox="0 0 15 17" fill="none" xmlns="http://www.w3.org/2000/svg">
<path d="M0.666016 3.37793C0.666016 2.5498 1.33789 1.87793 2.16602 1.87793H5.16602C5.99414 1.87793 6.66602 2.5498 6.66602 3.37793V6.37793C6.66602 7.20605 5.99414 7.87793 5.16602 7.87793H2.16602C1.33789 7.87793 0.666016 7.20605 0.666016 6.37793V3.37793ZM2.66602 3.87793V5.87793H4.66602V3.87793H2.66602ZM0.666016 11.3779C0.666016 10.5498 1.33789 9.87793 2.16602 9.87793H5.16602C5.99414 9.87793 6.66602 10.5498 6.66602 11.3779V14.3779C6.66602 15.2061 5.99414 15.8779 5.16602 15.8779H2.16602C1.33789 15.8779 0.666016 15.2061 0.666016 14.3779V11.3779ZM2.66602 11.8779V13.8779H4.66602V11.8779H2.66602ZM10.166 1.87793H13.166C13.9941 1.87793 14.666 2.5498 14.666 3.37793V6.37793C14.666 7.20605 13.9941 7.87793 13.166 7.87793H10.166C9.33789 7.87793 8.66602 7.20605 8.66602 6.37793V3.37793C8.66602 2.5498 9.33789 1.87793 10.166 1.87793ZM12.666 3.87793H10.666V5.87793H12.666V3.87793ZM8.66602 10.3779C8.66602 10.1029 8.89102 9.87793 9.16602 9.87793H11.166C11.441 9.87793 11.666 10.1029 11.666 10.3779C11.666 10.6529 11.891 10.8779 12.166 10.8779H13.166C13.441 10.8779 13.666 10.6529 13.666 10.3779C13.666 10.1029 13.891 9.87793 14.166 9.87793C14.441 9.87793 14.666 10.1029 14.666 10.3779V13.3779C14.666 13.6529 14.441 13.8779 14.166 13.8779H12.166C11.891 13.8779 11.666 13.6529 11.666 13.3779C11.666 13.1029 11.441 12.8779 11.166 12.8779C10.891 12.8779 10.666 13.1029 10.666 13.3779V15.3779C10.666 15.6529 10.441 15.8779 10.166 15.8779H9.16602C8.89102 15.8779 8.66602 15.6529 8.66602 15.3779V10.3779ZM12.166 15.8779C12.0334 15.8779 11.9062 15.8253 11.8125 15.7315C11.7187 15.6377 11.666 15.5105 11.666 15.3779C11.666 15.2453 11.7187 15.1181 11.8125 15.0244C11.9062 14.9306 12.0334 14.8779 12.166 14.8779C12.2986 14.8779 12.4258 14.9306 12.5196 15.0244C12.6133 15.1181 12.666 15.2453 12.666 15.3779C12.666 15.5105 12.6133 15.6377 12.5196 15.7315C12.4258 15.8253 12.2986 15.8779 12.166 15.8779ZM14.166 15.8779C14.0334 15.8779 13.9062 15.8253 13.8125 15.7315C13.7187 15.6377 13.666 15.5105 13.666 15.3779C13.666 15.2453 13.7187 15.1181 13.8125 15.0244C13.9062 14.9306 14.0334 14.8779 14.166 14.8779C14.2986 14.8779 14.4258 14.9306 14.5196 15.0244C14.6133 15.1181 14.666 15.2453 14.666 15.3779C14.666 15.5105 14.6133 15.6377 14.5196 15.7315C14.4258 15.8253 14.2986 15.8779 14.166 15.8779Z" fill="#4B5563"/>
</svg>
