<svg width="13" height="13" viewBox="0 0 13 13" fill="none" xmlns="http://www.w3.org/2000/svg">
<path d="M7.26783 1.08412C7.26783 0.668121 6.93174 0.332031 6.51574 0.332031C6.09974 0.332031 5.76365 0.668121 5.76365 1.08412V6.78825L4.03854 5.06314C3.74476 4.76936 3.26765 4.76936 2.97387 5.06314C2.68008 5.35693 2.68008 5.83403 2.97387 6.12782L5.98222 9.13618C6.27601 9.42996 6.75311 9.42996 7.0469 9.13618L10.0553 6.12782C10.349 5.83403 10.349 5.35693 10.0553 5.06314C9.76147 4.76936 9.28436 4.76936 8.99058 5.06314L7.26783 6.78825V1.08412ZM2.0032 8.60501C1.17355 8.60501 0.499023 9.27954 0.499023 10.1092V10.8613C0.499023 11.6909 1.17355 12.3655 2.0032 12.3655H11.0283C11.8579 12.3655 12.5324 11.6909 12.5324 10.8613V10.1092C12.5324 9.27954 11.8579 8.60501 11.0283 8.60501H8.64274L7.57806 9.66969C6.99049 10.2573 6.03863 10.2573 5.45106 9.66969L4.38873 8.60501H2.0032ZM10.6522 9.92117C10.8018 9.92117 10.9453 9.9806 11.0511 10.0864C11.1569 10.1922 11.2163 10.3356 11.2163 10.4852C11.2163 10.6348 11.1569 10.7783 11.0511 10.8841C10.9453 10.9899 10.8018 11.0493 10.6522 11.0493C10.5026 11.0493 10.3592 10.9899 10.2534 10.8841C10.1476 10.7783 10.0882 10.6348 10.0882 10.4852C10.0882 10.3356 10.1476 10.1922 10.2534 10.0864C10.3592 9.9806 10.5026 9.92117 10.6522 9.92117Z" fill="#374151"/>
</svg>
