<svg width="17" height="17" viewBox="0 0 17 17" fill="none" xmlns="http://www.w3.org/2000/svg">
<path d="M2.16602 8.22168C2.16602 4.63105 5.07539 1.72168 8.66602 1.72168C10.6379 1.72168 12.4035 2.5998 13.5973 3.9873C13.866 4.30293 14.341 4.3373 14.6535 4.06855C14.966 3.7998 15.0035 3.3248 14.7348 3.0123C13.2691 1.30293 11.0941 0.22168 8.66602 0.22168C4.24727 0.22168 0.666016 3.80293 0.666016 8.22168V9.47168C0.666016 9.8873 1.00039 10.2217 1.41602 10.2217C1.83164 10.2217 2.16602 9.8873 2.16602 9.47168V8.22168ZM16.4941 6.56855C16.4098 6.1623 16.0098 5.90293 15.6066 5.99043C15.2035 6.07793 14.941 6.4748 15.0285 6.87793C15.1191 7.3123 15.1691 7.7623 15.1691 8.2248V9.4748C15.1691 9.89043 15.5035 10.2248 15.9191 10.2248C16.3348 10.2248 16.6691 9.89043 16.6691 9.4748V8.22168C16.6691 7.65605 16.6098 7.10293 16.4973 6.56855H16.4941ZM8.66602 2.72168C8.07227 2.72168 7.49727 2.81543 6.96289 2.99043C6.48789 3.14668 6.37852 3.73105 6.70352 4.1123C6.92539 4.37168 7.29102 4.4498 7.62227 4.35918C7.95352 4.26855 8.30352 4.22168 8.66602 4.22168C10.8754 4.22168 12.666 6.0123 12.666 8.22168V8.9998C12.666 9.7873 12.6191 10.5717 12.5285 11.3529C12.4754 11.8092 12.8223 12.2217 13.2848 12.2217C13.6535 12.2217 13.9691 11.9529 14.0129 11.5873C14.116 10.7311 14.1691 9.86856 14.1691 9.00293V8.22168C14.1691 5.18418 11.7066 2.72168 8.66914 2.72168H8.66602ZM5.37539 4.86855C5.09102 4.5373 4.58477 4.5123 4.31602 4.85605C3.59414 5.78418 3.16602 6.95293 3.16602 8.22168V8.9998C3.16602 9.75605 3.08477 10.5123 2.92227 11.2467C2.81602 11.7342 3.16914 12.2217 3.66914 12.2217C3.99727 12.2217 4.29102 12.0029 4.36289 11.6811C4.56289 10.8029 4.66602 9.90605 4.66602 8.9998V8.22168C4.66602 7.37168 4.93164 6.58418 5.38164 5.9373C5.60664 5.6123 5.63164 5.16855 5.37539 4.86855ZM8.66602 5.22168C7.00977 5.22168 5.66602 6.56543 5.66602 8.22168V8.9998C5.66602 10.1217 5.52227 11.2342 5.23477 12.3154C5.11602 12.7623 5.44414 13.2217 5.90664 13.2217C6.20352 13.2217 6.46602 13.0279 6.54414 12.7404C6.87227 11.5217 7.04102 10.2654 7.04102 8.9998V8.22168C7.04102 7.3248 7.76914 6.59668 8.66602 6.59668C9.56289 6.59668 10.291 7.3248 10.291 8.22168V8.9998C10.291 10.1342 10.1816 11.2623 9.96602 12.3717C9.88164 12.8061 10.2066 13.2217 10.6473 13.2217C10.966 13.2217 11.241 13.0029 11.3035 12.6904C11.5441 11.4779 11.666 10.2436 11.666 8.9998V8.22168C11.666 6.56543 10.3223 5.22168 8.66602 5.22168ZM9.41602 8.22168C9.41602 7.80605 9.08164 7.47168 8.66602 7.47168C8.25039 7.47168 7.91602 7.80605 7.91602 8.22168V8.9998C7.91602 10.8717 7.57227 12.7279 6.90039 14.4748L6.71602 14.9529C6.56602 15.3404 6.75977 15.7748 7.14727 15.9217C7.53477 16.0686 7.96914 15.8779 8.11602 15.4904L8.30039 15.0123C9.03789 13.0936 9.41602 11.0561 9.41602 8.9998V8.22168Z" fill="#4B5563"/>
</svg>
