<svg width="17" height="22" viewBox="0 0 17 22" fill="none" xmlns="http://www.w3.org/2000/svg">
<path d="M13.7374 10.6109C13.7374 12.0493 13.2705 13.3779 12.4839 14.4559L16.4512 18.4263C16.8429 18.8181 16.8429 19.4542 16.4512 19.8459C16.0595 20.2376 15.4233 20.2376 15.0316 19.8459L11.0643 15.8755C9.98634 16.6652 8.65765 17.129 7.21928 17.129C3.61865 17.129 0.701172 14.2115 0.701172 10.6109C0.701172 7.01025 3.61865 4.09277 7.21928 4.09277C10.8199 4.09277 13.7374 7.01025 13.7374 10.6109ZM7.21928 15.1234C7.81187 15.1234 8.39866 15.0067 8.94615 14.7799C9.49364 14.5531 9.99109 14.2208 10.4101 13.8017C10.8291 13.3827 11.1615 12.8852 11.3883 12.3378C11.6151 11.7903 11.7318 11.2035 11.7318 10.6109C11.7318 10.0183 11.6151 9.43149 11.3883 8.88401C11.1615 8.33652 10.8291 7.83906 10.4101 7.42004C9.99109 7.00101 9.49364 6.66862 8.94615 6.44184C8.39866 6.21506 7.81187 6.09834 7.21928 6.09834C6.62668 6.09834 6.03989 6.21506 5.49241 6.44184C4.94492 6.66862 4.44746 7.00101 4.02843 7.42004C3.60941 7.83906 3.27702 8.33652 3.05024 8.88401C2.82346 9.43149 2.70674 10.0183 2.70674 10.6109C2.70674 11.2035 2.82346 11.7903 3.05024 12.3378C3.27702 12.8852 3.60941 13.3827 4.02843 13.8017C4.44746 14.2208 4.94492 14.5531 5.49241 14.7799C6.03989 15.0067 6.62668 15.1234 7.21928 15.1234Z" fill="#9CA3AF"/>
</svg>
