<svg width="15" height="15" viewBox="0 0 15 15" fill="none" xmlns="http://www.w3.org/2000/svg">
<path d="M0.481445 7.1144C0.481445 6.49482 0.560236 5.89458 0.707788 5.32085C1.10351 5.34165 1.49727 5.25262 1.84555 5.06361C2.19383 4.8746 2.48306 4.59296 2.68127 4.24983C2.87949 3.9067 2.97896 3.51545 2.96869 3.11932C2.95843 2.72319 2.83883 2.33761 2.62311 2.00521C3.48904 1.15325 4.55762 0.535765 5.72816 0.210938C5.90794 0.5644 6.18202 0.86122 6.52006 1.06854C6.85811 1.27586 7.24693 1.3856 7.64348 1.3856C8.04004 1.3856 8.42886 1.27586 8.7669 1.06854C9.10495 0.86122 9.37903 0.5644 9.5588 0.210938C10.7293 0.535765 11.7979 1.15325 12.6639 2.00521C12.4479 2.33767 12.3281 2.72339 12.3178 3.11971C12.3074 3.51602 12.4069 3.90747 12.6053 4.25074C12.8036 4.59401 13.093 4.87573 13.4415 5.06472C13.79 5.25371 14.184 5.3426 14.5799 5.32156C14.7274 5.89458 14.8062 6.49482 14.8062 7.1144C14.8062 7.73398 14.7274 8.33422 14.5799 8.90795C14.1841 8.88701 13.7903 8.97593 13.4419 9.16489C13.0935 9.35385 12.8041 9.63547 12.6058 9.97863C12.4075 10.3218 12.308 10.7131 12.3182 11.1093C12.3285 11.5055 12.4481 11.8911 12.6639 12.2236C11.7979 13.0756 10.7293 13.693 9.5588 14.0179C9.37903 13.6644 9.10495 13.3676 8.7669 13.1603C8.42886 12.9529 8.04004 12.8432 7.64348 12.8432C7.24693 12.8432 6.85811 12.9529 6.52006 13.1603C6.18202 13.3676 5.90794 13.6644 5.72816 14.0179C4.55762 13.693 3.48904 13.0756 2.62311 12.2236C2.83907 11.8911 2.95885 11.5054 2.96919 11.1091C2.97953 10.7128 2.88004 10.3213 2.68171 9.97806C2.48338 9.63479 2.19396 9.35307 1.84545 9.16408C1.49695 8.97509 1.10296 8.8862 0.707072 8.90724C0.560236 8.33493 0.481445 7.73469 0.481445 7.1144ZM3.92243 9.26323C4.37369 10.0447 4.50262 10.9436 4.32641 11.7874C4.61865 11.9951 4.92952 12.1749 5.25542 12.3246C5.91201 11.7364 6.76269 11.4114 7.6442 11.4121C8.54671 11.4121 9.39048 11.7494 10.033 12.3246C10.3589 12.1749 10.6697 11.9951 10.962 11.7874C10.7811 10.925 10.9249 10.0261 11.366 9.26323C11.8062 8.49994 12.5127 7.92605 13.35 7.65161C13.3832 7.29423 13.3832 6.93457 13.35 6.57719C12.5125 6.3029 11.8057 5.72899 11.3652 4.96557C10.9242 4.20269 10.7804 3.30384 10.9613 2.44142C10.6691 2.23364 10.3581 2.05378 10.0323 1.90421C9.37586 2.49223 8.52546 2.81718 7.6442 2.81675C6.76269 2.81736 5.91201 2.49239 5.25542 1.90421C4.92961 2.05379 4.61857 2.23365 4.32641 2.44142C4.50732 3.30384 4.36346 4.20269 3.92243 4.96557C3.48219 5.72886 2.77566 6.30275 1.93835 6.57719C1.90522 6.93457 1.90522 7.29423 1.93835 7.65161C2.77593 7.9259 3.48273 8.49981 3.92315 9.26323H3.92243ZM7.6442 9.26323C7.0743 9.26323 6.52773 9.03683 6.12475 8.63385C5.72177 8.23087 5.49537 7.6843 5.49537 7.1144C5.49537 6.5445 5.72177 5.99793 6.12475 5.59495C6.52773 5.19197 7.0743 4.96557 7.6442 4.96557C8.2141 4.96557 8.76067 5.19197 9.16365 5.59495C9.56663 5.99793 9.79303 6.5445 9.79303 7.1144C9.79303 7.6843 9.56663 8.23087 9.16365 8.63385C8.76067 9.03683 8.2141 9.26323 7.6442 9.26323ZM7.6442 7.83068C7.83417 7.83068 8.01635 7.75521 8.15068 7.62088C8.28501 7.48655 8.36047 7.30437 8.36047 7.1144C8.36047 6.92443 8.28501 6.74224 8.15068 6.60792C8.01635 6.47359 7.83417 6.39812 7.6442 6.39812C7.45423 6.39812 7.27204 6.47359 7.13772 6.60792C7.00339 6.74224 6.92792 6.92443 6.92792 7.1144C6.92792 7.30437 7.00339 7.48655 7.13772 7.62088C7.27204 7.75521 7.45423 7.83068 7.6442 7.83068Z" fill="#374151"/>
</svg>
