<svg width="12" height="19" viewBox="0 0 12 19" fill="none" xmlns="http://www.w3.org/2000/svg">
<path d="M5.89594 2.95158C4.9617 2.95158 4.20374 3.70954 4.20374 4.64378V10.4431C4.20374 11.053 3.95343 11.5677 3.66435 11.9414C3.29418 12.4209 3.0756 13.0166 3.0756 13.6688C3.0756 15.2271 4.3377 16.4892 5.89594 16.4892C7.45417 16.4892 8.71627 15.2271 8.71627 13.6688C8.71627 13.0166 8.4977 12.4209 8.12753 11.9449C7.83844 11.5712 7.58814 11.0565 7.58814 10.4466V4.64378C7.58814 3.70954 6.83017 2.95158 5.89594 2.95158ZM1.94747 4.64378C1.94747 2.46507 3.7137 0.695312 5.89594 0.695312C8.07817 0.695312 9.84441 2.46155 9.84441 4.64378V10.4431C9.84441 10.4466 9.84793 10.4537 9.85146 10.4642C9.85851 10.4854 9.87966 10.5207 9.91139 10.563C10.5777 11.4232 10.9725 12.5019 10.9725 13.6688C10.9725 16.4716 8.69864 18.7455 5.89594 18.7455C3.09323 18.7455 0.819336 16.4716 0.819336 13.6688C0.819336 12.4984 1.21418 11.4196 1.88049 10.563C1.91222 10.5207 1.93337 10.4854 1.94042 10.4642C1.94394 10.4537 1.94747 10.4466 1.94747 10.4431V4.64378ZM7.58814 13.6688C7.58814 14.6031 6.83017 15.361 5.89594 15.361C4.9617 15.361 4.20374 14.6031 4.20374 13.6688C4.20374 12.932 4.67614 12.3045 5.33187 12.0718V8.02818C5.33187 7.71794 5.5857 7.46411 5.89594 7.46411C6.20617 7.46411 6.46 7.71794 6.46 8.02818V12.0718C7.11573 12.3045 7.58814 12.932 7.58814 13.6688Z" fill="#2563EB"/>
</svg>
