<svg width="10" height="17" viewBox="0 0 10 17" fill="none" xmlns="http://www.w3.org/2000/svg">
<path d="M3.5 4.37793C3.5 3.5498 4.17188 2.87793 5 2.87793C5.82812 2.87793 6.5 3.5498 6.5 4.37793V9.51855C6.5 10.0592 6.72188 10.5154 6.97813 10.8467C7.30625 11.2717 7.5 11.7998 7.5 12.3779C7.5 13.7592 6.38125 14.8779 5 14.8779C3.61875 14.8779 2.5 13.7592 2.5 12.3779C2.5 11.7998 2.69375 11.2717 3.02187 10.8498C3.27812 10.5186 3.5 10.0623 3.5 9.52168V4.37793ZM5 0.87793C3.06562 0.87793 1.5 2.44668 1.5 4.37793V9.51855C1.5 9.52168 1.49687 9.52793 1.49375 9.5373C1.4875 9.55606 1.46875 9.5873 1.44062 9.6248C0.85 10.3842 0.5 11.3404 0.5 12.3779C0.5 14.8623 2.51562 16.8779 5 16.8779C7.48438 16.8779 9.5 14.8623 9.5 12.3779C9.5 11.3404 9.15 10.3842 8.55937 9.6248C8.53125 9.5873 8.5125 9.55606 8.50625 9.5373C8.50313 9.52793 8.5 9.52168 8.5 9.51855V4.37793C8.5 2.44668 6.93437 0.87793 5 0.87793ZM5 13.8779C5.39782 13.8779 5.77936 13.7199 6.06066 13.4386C6.34196 13.1573 6.5 12.7758 6.5 12.3779C6.5 11.9801 6.34196 11.5986 6.06066 11.3173C5.77936 11.036 5.39782 10.8779 5 10.8779C4.60218 10.8779 4.22064 11.036 3.93934 11.3173C3.65804 11.5986 3.5 11.9801 3.5 12.3779C3.5 12.7758 3.65804 13.1573 3.93934 13.4386C4.22064 13.7199 4.60218 13.8779 5 13.8779Z" fill="#6B7280"/>
</svg>
