<svg width="16" height="15" viewBox="0 0 16 15" fill="none" xmlns="http://www.w3.org/2000/svg">
<path d="M2 1.8877C2 1.33457 1.55313 0.887695 1 0.887695C0.446875 0.887695 0 1.33457 0 1.8877V12.3877C0 13.7689 1.11875 14.8877 2.5 14.8877H15C15.5531 14.8877 16 14.4408 16 13.8877C16 13.3346 15.5531 12.8877 15 12.8877H2.5C2.225 12.8877 2 12.6627 2 12.3877V1.8877ZM14.7063 4.59395C15.0969 4.20332 15.0969 3.56895 14.7063 3.17832C14.3156 2.7877 13.6812 2.7877 13.2906 3.17832L10 6.47207L8.20625 4.67832C7.81563 4.2877 7.18125 4.2877 6.79063 4.67832L3.29063 8.17832C2.9 8.56894 2.9 9.20332 3.29063 9.59395C3.68125 9.98457 4.31563 9.98457 4.70625 9.59395L7.5 6.80332L9.29375 8.59707C9.68437 8.9877 10.3188 8.9877 10.7094 8.59707L14.7094 4.59707L14.7063 4.59395Z" fill="#6B7280"/>
</svg>
