<svg width="13" height="13" viewBox="0 0 13 13" fill="none" xmlns="http://www.w3.org/2000/svg">
<path d="M2.93004 4.85977C3.11101 4.34741 3.40479 3.8656 3.81844 3.45431C5.28736 1.98538 7.6682 1.98538 9.13712 3.45431L9.53902 3.85855H8.35683C7.94083 3.85855 7.60474 4.19464 7.60474 4.61064C7.60474 5.02664 7.94083 5.36273 8.35683 5.36273H11.3534H11.3628C11.7788 5.36273 12.1149 5.02664 12.1149 4.61064V1.60229C12.1149 1.18629 11.7788 0.850197 11.3628 0.850197C10.9468 0.850197 10.6107 1.18629 10.6107 1.60229V2.80563L10.1994 2.39198C8.14295 0.335486 4.81026 0.335486 2.75376 2.39198C2.1803 2.96545 1.76665 3.63998 1.51282 4.36151C1.37415 4.75401 1.58098 5.18176 1.97112 5.32043C2.36127 5.45909 2.79137 5.25227 2.93004 4.86212V4.85977ZM1.3765 6.89746C1.25899 6.93272 1.14617 6.99618 1.05451 7.09019C0.960502 7.1842 0.897045 7.29701 0.864141 7.41923C0.85709 7.44743 0.850039 7.47798 0.845339 7.50854C0.838288 7.54849 0.835938 7.58845 0.835938 7.6284V10.6274C0.835938 11.0434 1.17203 11.3794 1.58803 11.3794C2.00403 11.3794 2.34012 11.0434 2.34012 10.6274V9.42636L2.75376 9.83766C4.81026 11.8918 8.14295 11.8918 10.1971 9.83766C10.7706 9.26419 11.1866 8.58966 11.4404 7.87048C11.5791 7.47798 11.3722 7.05023 10.9821 6.91157C10.5919 6.7729 10.1618 6.97972 10.0232 7.36987C9.84221 7.88223 9.54842 8.36404 9.13477 8.77534C7.66585 10.2443 5.28502 10.2443 3.81609 8.77534L3.81374 8.77299L3.41184 8.37109H4.59638C5.01238 8.37109 5.34847 8.035 5.34847 7.619C5.34847 7.203 5.01238 6.86691 4.59638 6.86691H1.59743C1.55982 6.86691 1.52222 6.86926 1.48461 6.87396C1.44701 6.87866 1.41176 6.88571 1.3765 6.89746Z" fill="#374151"/>
</svg>
