<svg width="14" height="13" viewBox="0 0 14 13" fill="none" xmlns="http://www.w3.org/2000/svg">
<path d="M3.45347 5.29239C3.63444 4.78003 3.92823 4.29822 4.34188 3.88692C5.8108 2.418 8.19164 2.418 9.66056 3.88692L10.0625 4.29117H8.88027C8.46427 4.29117 8.12818 4.62726 8.12818 5.04326C8.12818 5.45926 8.46427 5.79535 8.88027 5.79535H11.8769H11.8863C12.3023 5.79535 12.6384 5.45926 12.6384 5.04326V2.0349C12.6384 1.6189 12.3023 1.28281 11.8863 1.28281C11.4703 1.28281 11.1342 1.6189 11.1342 2.0349V3.23825L10.7229 2.8246C8.66639 0.768103 5.3337 0.768103 3.2772 2.8246C2.70373 3.39806 2.29009 4.07259 2.03626 4.79413C1.89759 5.18663 2.10441 5.61438 2.49456 5.75304C2.88471 5.89171 3.31481 5.68489 3.45347 5.29474V5.29239ZM1.89994 7.33008C1.78243 7.36533 1.66961 7.42879 1.57795 7.5228C1.48394 7.61681 1.42048 7.72963 1.38758 7.85184C1.38053 7.88005 1.37348 7.9106 1.36878 7.94115C1.36173 7.98111 1.35938 8.02106 1.35938 8.06102V11.06C1.35938 11.476 1.69546 11.8121 2.11146 11.8121C2.52746 11.8121 2.86355 11.476 2.86355 11.06V9.85898L3.2772 10.2703C5.3337 12.3244 8.66639 12.3244 10.7205 10.2703C11.294 9.69681 11.71 9.02228 11.9638 8.3031C12.1025 7.9106 11.8957 7.48285 11.5055 7.34418C11.1154 7.20552 10.6853 7.41234 10.5466 7.80249C10.3656 8.31485 10.0719 8.79665 9.65821 9.20795C8.18928 10.6769 5.80845 10.6769 4.33953 9.20795L4.33718 9.2056L3.93528 8.80371H5.11982C5.53582 8.80371 5.87191 8.46762 5.87191 8.05162C5.87191 7.63562 5.53582 7.29953 5.11982 7.29953H2.12087C2.08326 7.29953 2.04566 7.30188 2.00805 7.30658C1.97045 7.31128 1.93519 7.31833 1.89994 7.33008Z" fill="white"/>
</svg>
