<svg width="9" height="8" viewBox="0 0 9 8" fill="none" xmlns="http://www.w3.org/2000/svg">
<path d="M0.557378 2.94744C0.461191 2.97573 0.379148 2.97149 0.311252 2.93471C0.246184 2.89793 0.203748 2.84277 0.183945 2.76921C0.161312 2.69566 0.166971 2.62634 0.200919 2.56128C0.234867 2.49338 0.297106 2.4467 0.387636 2.42124C0.69883 2.32222 1.02558 2.24442 1.3679 2.18784C1.71021 2.12843 2.05535 2.09873 2.40333 2.09873C2.67208 2.09873 2.92104 2.11004 3.15019 2.13268C3.37934 2.15248 3.60142 2.1737 3.81643 2.19633C4.03427 2.21613 4.26059 2.22604 4.4954 2.22604C4.70192 2.22604 4.86742 2.16804 4.9919 2.05205C5.11637 1.93323 5.17861 1.77763 5.17861 1.58526C5.17861 1.39288 5.11779 1.24011 4.99614 1.12695C4.87449 1.01096 4.72597 0.952968 4.55057 0.952968C4.4176 0.952968 4.29737 0.99116 4.18986 1.06754C4.08519 1.1411 4.00881 1.23163 3.96071 1.33913C3.91545 1.424 3.85604 1.47775 3.78248 1.50039C3.70893 1.52302 3.6382 1.51736 3.5703 1.48341C3.49675 1.44663 3.45148 1.39288 3.43451 1.32216C3.42037 1.2486 3.43027 1.17646 3.46422 1.10574C3.55474 0.904874 3.69761 0.736546 3.89281 0.600752C4.08802 0.464958 4.30727 0.397061 4.55057 0.397061C4.7684 0.397061 4.96643 0.447984 5.14466 0.54983C5.32572 0.651675 5.46859 0.791712 5.57326 0.969942C5.68077 1.14817 5.73452 1.35328 5.73452 1.58526C5.73452 1.80875 5.6836 2.01103 5.58175 2.19209C5.48273 2.37315 5.33987 2.51601 5.15315 2.62069C4.96926 2.72536 4.75001 2.7777 4.4954 2.7777C4.24927 2.7777 4.01588 2.7678 3.79521 2.74799C3.57738 2.72536 3.3553 2.70414 3.12897 2.68434C2.90548 2.66171 2.6636 2.65039 2.40333 2.65039C1.78377 2.65039 1.16845 2.74941 0.557378 2.94744ZM7.1943 4.93343C6.83784 4.93343 6.48704 4.89665 6.1419 4.82309C5.79676 4.74954 5.44879 4.66467 5.09799 4.56848C4.74718 4.46946 4.38224 4.38318 4.00315 4.30962C3.62689 4.23607 3.22799 4.19929 2.80646 4.19929C2.38777 4.19929 1.99453 4.22899 1.62675 4.2884C1.25898 4.34781 0.902521 4.444 0.557378 4.57697C0.46402 4.60809 0.383392 4.60526 0.315495 4.56848C0.247598 4.5317 0.203748 4.47654 0.183945 4.40298C0.161312 4.32943 0.166971 4.26011 0.200919 4.19505C0.237697 4.12715 0.299935 4.07764 0.387636 4.04652C0.761069 3.91639 1.14723 3.81737 1.54613 3.74947C1.94785 3.67875 2.36796 3.64338 2.80646 3.64338C3.23082 3.64338 3.63679 3.68158 4.02437 3.75796C4.41477 3.83151 4.78962 3.91639 5.14891 4.01257C5.51102 4.10876 5.86183 4.19505 6.20131 4.27143C6.5408 4.34499 6.87179 4.38176 7.1943 4.38176C7.53945 4.38176 7.81386 4.29406 8.01755 4.11866C8.22407 3.94043 8.32733 3.70987 8.32733 3.42696C8.32733 3.24307 8.2849 3.0804 8.20003 2.93895C8.11798 2.79467 8.00482 2.68292 7.86054 2.60371C7.71909 2.5245 7.56208 2.48489 7.38951 2.48489C7.23957 2.48489 7.10236 2.51743 6.97788 2.58249C6.8534 2.64473 6.74873 2.73243 6.66386 2.84559C6.58182 2.95593 6.52806 3.08465 6.5026 3.23176C6.48563 3.33077 6.44602 3.40433 6.38378 3.45242C6.32437 3.50052 6.25506 3.51891 6.17585 3.50759C6.09947 3.49627 6.03864 3.4595 5.99338 3.39726C5.95094 3.33219 5.9368 3.25581 5.95094 3.1681C5.98489 2.93612 6.06693 2.72677 6.19707 2.54006C6.3272 2.35334 6.49412 2.20623 6.69781 2.09873C6.9015 1.9884 7.13206 1.93323 7.38951 1.93323C7.66392 1.93323 7.91429 1.9983 8.14062 2.12843C8.36694 2.25574 8.54658 2.43255 8.67955 2.65888C8.81534 2.88237 8.88324 3.1384 8.88324 3.42696C8.88324 3.72118 8.8111 3.98145 8.66682 4.20778C8.52254 4.4341 8.32309 4.61233 8.06848 4.74247C7.81669 4.86977 7.5253 4.93343 7.1943 4.93343ZM4.49964 7.92513C4.1743 7.92513 3.90837 7.82187 3.70185 7.61535C3.49533 7.40883 3.37369 7.15846 3.33691 6.86424C3.32276 6.77654 3.33549 6.69875 3.3751 6.63085C3.41471 6.56295 3.4826 6.52476 3.57879 6.51627C3.67215 6.51061 3.7457 6.53608 3.79946 6.59266C3.85604 6.64641 3.88999 6.71289 3.9013 6.7921C3.93242 6.97033 3.99749 7.11179 4.09651 7.21646C4.19835 7.32113 4.33273 7.37347 4.49964 7.37347C4.66656 7.37347 4.80942 7.3183 4.92824 7.20797C5.04706 7.09764 5.10647 6.94487 5.10647 6.74967C5.10647 6.43847 4.90561 6.19376 4.50389 6.01553C4.10499 5.83447 3.5208 5.74394 2.7513 5.74394C2.36938 5.74394 1.9917 5.77648 1.61827 5.84155C1.24766 5.90379 0.894034 5.99573 0.557378 6.11738C0.46402 6.1485 0.383392 6.14567 0.315495 6.10889C0.247598 6.07211 0.203748 6.01695 0.183945 5.94339C0.161312 5.87267 0.166971 5.80335 0.200919 5.73546C0.237697 5.66756 0.299935 5.61805 0.387636 5.58693C0.746924 5.46246 1.13167 5.36485 1.54188 5.29413C1.95492 5.2234 2.35806 5.18804 2.7513 5.18804C3.69337 5.18804 4.41336 5.32383 4.91127 5.59542C5.40918 5.86418 5.65813 6.24893 5.65813 6.74967C5.65813 6.98165 5.60721 7.18534 5.50537 7.36074C5.40352 7.53614 5.2649 7.67335 5.0895 7.77237C4.9141 7.87421 4.71748 7.92513 4.49964 7.92513Z" fill="#374151"/>
</svg>
